<svg xmlns="http://www.w3.org/2000/svg" xmlns:xlink="http://www.w3.org/1999/xlink" width="85" height="78.889" viewBox="0 0 85 78.889">
  <defs>
    <filter id="building-shield-solid" x="0" y="0" width="85" height="78.889" filterUnits="userSpaceOnUse">
      <feOffset dx="5" dy="5" input="SourceAlpha"/>
      <feGaussianBlur stdDeviation="5" result="blur"/>
      <feFlood flood-opacity="0.161"/>
      <feComposite operator="in" in2="blur"/>
      <feComposite in="SourceGraphic"/>
    </filter>
  </defs>
  <g transform="matrix(1, 0, 0, 1, 0, 0)" filter="url(#building-shield-solid)">
    <path id="building-shield-solid-2" data-name="building-shield-solid" d="M0,4.583A4.583,4.583,0,0,1,4.583,0h27.5a4.584,4.584,0,0,1,4.583,4.583V19.766l-4.049,1.623H25.972a1.532,1.532,0,0,0-1.528,1.528v6.111a2.173,2.173,0,0,0,.019.248c.22,5.548,2.3,13.826,9.424,19.24a4.553,4.553,0,0,1-1.8.372H22.917V41.25a4.583,4.583,0,0,0-9.167,0v7.639H4.583A4.584,4.584,0,0,1,0,44.306ZM7.639,21.389a1.53,1.53,0,0,0-1.528,1.528v3.056A1.53,1.53,0,0,0,7.639,27.5h3.056a1.532,1.532,0,0,0,1.528-1.528V22.917a1.532,1.532,0,0,0-1.528-1.528Zm7.639,4.583A1.532,1.532,0,0,0,16.806,27.5h3.056a1.532,1.532,0,0,0,1.528-1.528V22.917a1.532,1.532,0,0,0-1.528-1.528H16.806a1.532,1.532,0,0,0-1.528,1.528ZM6.111,13.75a1.53,1.53,0,0,0,1.528,1.528h3.056a1.532,1.532,0,0,0,1.528-1.528V10.694a1.532,1.532,0,0,0-1.528-1.528H7.639a1.53,1.53,0,0,0-1.528,1.528ZM16.806,9.167a1.532,1.532,0,0,0-1.528,1.528V13.75a1.532,1.532,0,0,0,1.528,1.528h3.056a1.532,1.532,0,0,0,1.528-1.528V10.694a1.532,1.532,0,0,0-1.528-1.528Zm7.639,4.583a1.532,1.532,0,0,0,1.528,1.528h3.056a1.532,1.532,0,0,0,1.528-1.528V10.694a1.532,1.532,0,0,0-1.528-1.528H25.972a1.532,1.532,0,0,0-1.528,1.528Zm15.956,7.8a2.275,2.275,0,0,1,1.7,0l11.458,4.583A2.3,2.3,0,0,1,55,28.264c0,6.044-2.473,16.118-12.872,20.453a2.331,2.331,0,0,1-1.757,0C29.973,44.382,27.5,34.308,27.5,28.264a2.182,2.182,0,0,1,1.442-2.129Zm.85,4.593V44.086c6.512-3.151,8.737-9.453,9.109-14.38Z" transform="translate(10 10)" fill="#fff"/>
  </g>
</svg>
