<svg xmlns="http://www.w3.org/2000/svg" xmlns:xlink="http://www.w3.org/1999/xlink" width="85" height="81.333" viewBox="0 0 85 81.333">
  <defs>
    <filter id="burger-solid" x="0" y="0" width="85" height="81.333" filterUnits="userSpaceOnUse">
      <feOffset dx="5" dy="5" input="SourceAlpha"/>
      <feGaussianBlur stdDeviation="5" result="blur"/>
      <feFlood flood-opacity="0.161"/>
      <feComposite operator="in" in2="blur"/>
      <feComposite in="SourceGraphic"/>
    </filter>
  </defs>
  <g transform="matrix(1, 0, 0, 1, 0, 0)" filter="url(#burger-solid)">
    <path id="burger-solid-2" data-name="burger-solid" d="M69.384,59.282A5.5,5.5,0,0,1,65.5,68.667h-44a5.5,5.5,0,0,1,0-11h44A5.5,5.5,0,0,1,69.384,59.282Zm-.756,13.59a1.84,1.84,0,0,1,.539,1.295V76a7.316,7.316,0,0,1-7.333,7.333H25.167a7.329,7.329,0,0,1-5.185-2.143A7.52,7.52,0,0,1,17.833,76V74.167a1.837,1.837,0,0,1,1.833-1.833H67.333A1.84,1.84,0,0,1,68.628,72.872ZM19.941,53.633a3.777,3.777,0,0,1-1.309-1.054,3.707,3.707,0,0,1-.685-3.2C20.466,39.45,30.953,32,43.5,32s23.031,7.45,25.552,17.382a3.738,3.738,0,0,1-.687,3.2,4.854,4.854,0,0,1-1.306,1.054A3.808,3.808,0,0,1,65.42,54H21.577A3.84,3.84,0,0,1,19.941,53.633ZM56.872,41.705A1.84,1.84,0,0,0,56.333,43a1.783,1.783,0,0,0,.309,1.02,1.455,1.455,0,0,0,.825.676,3.585,3.585,0,0,0,1.054.1,1.846,1.846,0,0,0,1.444-1.444,3.586,3.586,0,0,0-.1-1.054,1.455,1.455,0,0,0-.676-.825,1.9,1.9,0,0,0-1.02-.413,1.955,1.955,0,0,0-1.295.642ZM42.205,38.037a1.835,1.835,0,0,0-.539,1.3,1.793,1.793,0,0,0,.309,1.02,1.455,1.455,0,0,0,.825.676,3.586,3.586,0,0,0,1.054.1A1.848,1.848,0,0,0,45.3,39.691a3.624,3.624,0,0,0-.1-1.059,1.841,1.841,0,0,0-.676-.823,1.556,1.556,0,0,0-2.315.228ZM27.539,41.705A1.84,1.84,0,0,0,27,43a1.783,1.783,0,0,0,.309,1.02,1.455,1.455,0,0,0,.825.676,3.585,3.585,0,0,0,1.054.1,1.846,1.846,0,0,0,1.444-1.444,3.586,3.586,0,0,0-.1-1.054,1.455,1.455,0,0,0-.676-.825,1.9,1.9,0,0,0-1.02-.413,1.955,1.955,0,0,0-1.295.642Z" transform="translate(-6 -22)" fill="#fff"/>
  </g>
</svg>
