<svg xmlns="http://www.w3.org/2000/svg" xmlns:xlink="http://www.w3.org/1999/xlink" width="85" height="78.889" viewBox="0 0 85 78.889">
  <defs>
    <filter id="envelopes-bulk-solid" x="0" y="0" width="85" height="78.889" filterUnits="userSpaceOnUse">
      <feOffset dx="5" dy="5" input="SourceAlpha"/>
      <feGaussianBlur stdDeviation="5" result="blur"/>
      <feFlood flood-opacity="0.161"/>
      <feComposite operator="in" in2="blur"/>
      <feComposite in="SourceGraphic"/>
    </filter>
  </defs>
  <g transform="matrix(1, 0, 0, 1, 0, 0)" filter="url(#envelopes-bulk-solid)">
    <path id="envelopes-bulk-solid-2" data-name="envelopes-bulk-solid" d="M47.268,42.835a4.557,4.557,0,0,1-2.653-.849L32,32.484V45.833a3.062,3.062,0,0,0,3.056,3.056H59.5a3.062,3.062,0,0,0,3.056-3.056V32.484L49.97,41.966A4.621,4.621,0,0,1,47.268,42.835Zm.01-24.5a6.123,6.123,0,0,1,6.111-6.111H74.778V3.056A3.062,3.062,0,0,0,71.722,0H41.167a3.063,3.063,0,0,0-3.056,3.056V21.389h9.167ZM59.5,24.444H35.056A3.063,3.063,0,0,0,32,27.5v1.163L46.418,39.529a1.518,1.518,0,0,0,1.745-.024L62.556,28.665V27.5A3.065,3.065,0,0,0,59.5,24.444Zm24.444-9.167H53.389a3.065,3.065,0,0,0-3.056,3.056v3.056H59.5a6.118,6.118,0,0,1,6.087,5.527l.024,12.807H83.944A3.062,3.062,0,0,0,87,36.667V18.333A3.065,3.065,0,0,0,83.944,15.278ZM80.889,27.5H74.778V21.389h6.111Z" transform="translate(-22 10)" fill="#fff"/>
  </g>
</svg>
