<svg xmlns="http://www.w3.org/2000/svg" xmlns:xlink="http://www.w3.org/1999/xlink" width="85" height="78.889" viewBox="0 0 85 78.889">
  <defs>
    <filter id="file-signature-solid" x="0" y="0" width="85" height="78.889" filterUnits="userSpaceOnUse">
      <feOffset dx="5" dy="5" input="SourceAlpha"/>
      <feGaussianBlur stdDeviation="5" result="blur"/>
      <feFlood flood-opacity="0.161"/>
      <feComposite operator="in" in2="blur"/>
      <feComposite in="SourceGraphic"/>
    </filter>
  </defs>
  <g transform="matrix(1, 0, 0, 1, 0, 0)" filter="url(#file-signature-solid)">
    <path id="file-signature-solid-2" data-name="file-signature-solid" d="M27.949,32.685a1.539,1.539,0,0,0-.449,1.089v5.949h5.953a1.527,1.527,0,0,0,1.084-.451L49.518,24.184,43.037,17.7Zm26.335-16.7-3.046-3.046a2.421,2.421,0,0,0-3.438,0l-2.6,2.6,6.482,6.482,2.6-2.6A2.417,2.417,0,0,0,54.284,15.984ZM24.445,0V12.222H36.667Zm0,42.778a4.112,4.112,0,0,1-3.617-2.28,1.067,1.067,0,0,0-1.921-.036l-.74,1.469a1.614,1.614,0,0,1-1.361.847H16.7a1.513,1.513,0,0,1-1.337-1.05L13.75,36.915l-1.012,3.046a4.129,4.129,0,0,1-3.91,2.817H7.639a1.528,1.528,0,1,1,0-3.056H8.823a1.065,1.065,0,0,0,1.012-.728l1.743-5.216a2.287,2.287,0,0,1,4.345.005l1.325,3.975a4.278,4.278,0,0,1,6.3,1.348,1.126,1.126,0,0,0,.895.606V33.134a3.057,3.057,0,0,1,.9-2.168l11.32-11.247v-4.44H24.445a3.056,3.056,0,0,1-3.056-3.056V0H4.583A4.583,4.583,0,0,0,0,4.583V44.306a4.584,4.584,0,0,0,4.583,4.583h27.5a4.583,4.583,0,0,0,4.583-4.583V42.778Z" transform="translate(10 10)" fill="#fff"/>
  </g>
</svg>
