<svg xmlns="http://www.w3.org/2000/svg" xmlns:xlink="http://www.w3.org/1999/xlink" width="84.999" height="85" viewBox="0 0 84.999 85">
  <defs>
    <filter id="landmark-solid" x="0" y="0" width="84.999" height="85" filterUnits="userSpaceOnUse">
      <feOffset dx="5" dy="5" input="SourceAlpha"/>
      <feGaussianBlur stdDeviation="5" result="blur"/>
      <feFlood flood-opacity="0.161"/>
      <feComposite operator="in" in2="blur"/>
      <feComposite in="SourceGraphic"/>
    </filter>
  </defs>
  <g transform="matrix(1, 0, 0, 1, 0, 0)" filter="url(#landmark-solid)">
    <path id="landmark-solid-2" data-name="landmark-solid" d="M25.789.453a3.446,3.446,0,0,1,3.416,0L47.649,11l.376.172v.1L53.267,14.2a3.441,3.441,0,0,1-1.8,6.424H3.337A3.44,3.44,0,0,1,1.728,14.2l5.047-2.933v-.1L7.341,11ZM6.872,24.063h6.875V44.688h4.3V24.063h6.875V44.688h5.156V24.063H36.95V44.688h4.3V24.063h6.875V45.15c.064.032.129-.021.193.118l5.156,3.438A3.439,3.439,0,0,1,51.559,55H3.434a3.436,3.436,0,0,1-1.907-6.295l5.156-3.437c.061-.14.125-.086.188-.118Z" transform="translate(10 10)" fill="#fff"/>
  </g>
</svg>
