<svg xmlns="http://www.w3.org/2000/svg" xmlns:xlink="http://www.w3.org/1999/xlink" width="67.816" height="85" viewBox="0 0 67.816 85">
  <defs>
    <filter id="lightbulb-solid" x="0" y="0" width="67.816" height="85" filterUnits="userSpaceOnUse">
      <feOffset dx="5" dy="5" input="SourceAlpha"/>
      <feGaussianBlur stdDeviation="5" result="blur"/>
      <feFlood flood-opacity="0.161"/>
      <feComposite operator="in" in2="blur"/>
      <feComposite in="SourceGraphic"/>
    </filter>
  </defs>
  <g transform="matrix(1, 0, 0, 1, 0, 0)" filter="url(#lightbulb-solid)">
    <path id="lightbulb-solid-2" data-name="lightbulb-solid" d="M26.324,48.818a3.442,3.442,0,0,0,.568,1.9l1.841,2.76A3.842,3.842,0,0,0,31.6,55.012h6.625a3.84,3.84,0,0,0,2.859-1.534l1.835-2.759a4.049,4.049,0,0,0,.575-1.9l.014-4.211H26.314ZM34.844.012A18.828,18.828,0,0,0,20.68,31.263a30.9,30.9,0,0,1,5.61,9.825c0,.027.01.056.013.084H43.514c0-.029.01-.056.013-.084a30.894,30.894,0,0,1,5.61-9.825,18.424,18.424,0,0,0,4.679-12.441A18.888,18.888,0,0,0,34.844.012Zm.064,10.313a8.583,8.583,0,0,0-8.595,8.5,1.747,1.747,0,0,1-1.719,1.815,1.724,1.724,0,0,1-1.719-1.719A11.964,11.964,0,0,1,34.908,6.983,1.718,1.718,0,0,1,36.627,8.7,1.642,1.642,0,0,1,34.908,10.326Z" transform="translate(-6 9.99)" fill="#fff"/>
  </g>
</svg>
