<svg xmlns="http://www.w3.org/2000/svg" xmlns:xlink="http://www.w3.org/1999/xlink" width="85" height="84.85" viewBox="0 0 85 84.85">
  <defs>
    <filter id="person-military-pointing-solid" x="0" y="0" width="85" height="84.85" filterUnits="userSpaceOnUse">
      <feOffset dx="5" dy="5" input="SourceAlpha"/>
      <feGaussianBlur stdDeviation="5" result="blur"/>
      <feFlood flood-opacity="0.161"/>
      <feComposite operator="in" in2="blur"/>
      <feComposite in="SourceGraphic"/>
    </filter>
  </defs>
  <g transform="matrix(1, 0, 0, 1, 0, 0)" filter="url(#person-military-pointing-solid)">
    <path id="person-military-pointing-solid-2" data-name="person-military-pointing-solid" d="M39.4,1.393a1.718,1.718,0,0,1,1.858,1.713V6.3a1.662,1.662,0,0,1-1.719,1.719H23.22a2.582,2.582,0,0,1-2.589-2.589,2.556,2.556,0,0,1,2.46-2.676ZM22.35,13.172a10.9,10.9,0,0,1,.172-1.719H39.366a9.759,9.759,0,0,1,.172,1.719,8.594,8.594,0,1,1-17.187,0ZM33.651,25.2A14.927,14.927,0,0,1,38.13,26l-17.5,17.5V33.8H4.3a4.236,4.236,0,0,1-4.3-4.3,4.36,4.36,0,0,1,4.3-4.3ZM46.23,32.476,54.4,46.322a4.291,4.291,0,1,1-7.391,4.361l-5.758-9.732v4.974h-18.2l18.38-18.38a14.719,14.719,0,0,1,4.791,4.931ZM41.256,49.362V52.8a3.434,3.434,0,0,1-3.437,3.437H24.069A3.434,3.434,0,0,1,20.632,52.8V49.362Z" transform="translate(9.99 8.61)" fill="#fff"/>
  </g>
</svg>
