<svg xmlns="http://www.w3.org/2000/svg" xmlns:xlink="http://www.w3.org/1999/xlink" width="85" height="78.889" viewBox="0 0 85 78.889">
  <defs>
    <filter id="piggy-bank-solid" x="0" y="0" width="85" height="78.889" filterUnits="userSpaceOnUse">
      <feOffset dx="5" dy="5" input="SourceAlpha"/>
      <feGaussianBlur stdDeviation="5" result="blur"/>
      <feFlood flood-opacity="0.161"/>
      <feComposite operator="in" in2="blur"/>
      <feComposite in="SourceGraphic"/>
    </filter>
  </defs>
  <g transform="matrix(1, 0, 0, 1, 0, 0)" filter="url(#piggy-bank-solid)">
    <path id="piggy-bank-solid-2" data-name="piggy-bank-solid" d="M38.194,9.167l-.086.063c-.42-.042-.926-.063-1.442-.063H24.444a18.359,18.359,0,0,0-4.564.573c-.01-.191-.019-.38-.019-.573a9.167,9.167,0,0,1,18.333,0Zm-1.528,3.056c.334,0,.582.01.993.029s.812.067,1.2.124a9.175,9.175,0,0,1,6.97-3.208h3.056l-1.8,7.171a15.268,15.268,0,0,1,3.581,5.051h1.27A3.052,3.052,0,0,1,55,24.444v9.167a3.052,3.052,0,0,1-3.056,3.056H48.889a15.44,15.44,0,0,1-3.056,3.056v6.111a3.052,3.052,0,0,1-3.056,3.056H39.722a3.052,3.052,0,0,1-3.056-3.056V42.778H24.444v3.056a3.052,3.052,0,0,1-3.056,3.056H18.333a3.052,3.052,0,0,1-3.056-3.056V39.722A15.227,15.227,0,0,1,9.242,29.028H6.493a6.493,6.493,0,0,1,0-12.986h.382a2.292,2.292,0,1,1,0,4.583H6.493a1.859,1.859,0,0,0-1.91,1.91,1.912,1.912,0,0,0,1.91,1.91H9.472A15.3,15.3,0,0,1,20.577,12.719a14.684,14.684,0,0,1,3.867-.5Zm3.819,10.694a2.292,2.292,0,1,0,2.292,2.292A2.286,2.286,0,0,0,40.486,22.917Z" transform="translate(10 10)" fill="#fff"/>
  </g>
</svg>
