<svg xmlns="http://www.w3.org/2000/svg" xmlns:xlink="http://www.w3.org/1999/xlink" width="85" height="74" viewBox="0 0 85 74">
  <defs>
    <filter id="school-solid" x="0" y="0" width="85" height="74" filterUnits="userSpaceOnUse">
      <feOffset dx="5" dy="5" input="SourceAlpha"/>
      <feGaussianBlur stdDeviation="5" result="blur"/>
      <feFlood flood-opacity="0.161"/>
      <feComposite operator="in" in2="blur"/>
      <feComposite in="SourceGraphic"/>
    </filter>
  </defs>
  <g transform="matrix(1, 0, 0, 1, 0, 0)" filter="url(#school-solid)">
    <path id="school-solid-2" data-name="school-solid" d="M27.5,11a1.379,1.379,0,0,1,1.375,1.375V13.75H30.25a1.375,1.375,0,1,1,0,2.75H27.5a1.379,1.379,0,0,1-1.375-1.375v-2.75A1.379,1.379,0,0,1,27.5,11ZM40.975,8.427l10.794,2.324A4.271,4.271,0,0,1,55,14.85V39.875A4.126,4.126,0,0,1,50.875,44H4.125A4.126,4.126,0,0,1,0,39.875V14.85a4.275,4.275,0,0,1,3.23-4.1L14.025,8.427,25.97.462a2.764,2.764,0,0,1,3.059,0ZM22,44H33V35.75a5.5,5.5,0,0,0-11,0ZM8.25,16.5a1.377,1.377,0,0,0-1.375,1.375v5.5A1.377,1.377,0,0,0,8.25,24.75H11a1.379,1.379,0,0,0,1.375-1.375v-5.5A1.379,1.379,0,0,0,11,16.5Zm34.375,6.875A1.379,1.379,0,0,0,44,24.75h2.75a1.379,1.379,0,0,0,1.375-1.375v-5.5A1.379,1.379,0,0,0,46.75,16.5H44a1.379,1.379,0,0,0-1.375,1.375ZM8.25,27.5a1.377,1.377,0,0,0-1.375,1.375v5.5A1.377,1.377,0,0,0,8.25,35.75H11a1.379,1.379,0,0,0,1.375-1.375v-5.5A1.379,1.379,0,0,0,11,27.5Zm34.375,6.875A1.379,1.379,0,0,0,44,35.75h2.75a1.379,1.379,0,0,0,1.375-1.375v-5.5A1.379,1.379,0,0,0,46.75,27.5H44a1.379,1.379,0,0,0-1.375,1.375ZM27.5,7.563a7.563,7.563,0,1,0,7.563,7.563A7.563,7.563,0,0,0,27.5,7.563Z" transform="translate(10 10)" fill="#fff"/>
  </g>
</svg>
