<svg xmlns="http://www.w3.org/2000/svg" xmlns:xlink="http://www.w3.org/1999/xlink" width="85" height="85" viewBox="0 0 85 85">
  <defs>
    <filter id="sign-hanging-solid" x="0" y="0" width="85" height="85" filterUnits="userSpaceOnUse">
      <feOffset dx="5" dy="5" input="SourceAlpha"/>
      <feGaussianBlur stdDeviation="5" result="blur"/>
      <feFlood flood-opacity="0.161"/>
      <feComposite operator="in" in2="blur"/>
      <feComposite in="SourceGraphic"/>
    </filter>
  </defs>
  <g transform="matrix(1, 0, 0, 1, 0, 0)" filter="url(#sign-hanging-solid)">
    <path id="sign-hanging-solid-2" data-name="sign-hanging-solid" d="M10.313,0A3.436,3.436,0,0,1,13.75,3.438V6.875H51.563a3.438,3.438,0,0,1,0,6.875H13.75V51.563a3.438,3.438,0,0,1-6.875,0V13.75H3.438a3.438,3.438,0,0,1,0-6.875H6.875V3.438A3.438,3.438,0,0,1,10.313,0ZM48.125,17.188a3.434,3.434,0,0,1,3.438,3.438V37.813a3.434,3.434,0,0,1-3.437,3.438h-27.5a3.434,3.434,0,0,1-3.437-3.437V20.625a3.434,3.434,0,0,1,3.438-3.437Z" transform="translate(10 10)" fill="#fff"/>
  </g>
</svg>
